<svg width="120" height="39" viewBox="0 0 120 39" fill="none" xmlns="http://www.w3.org/2000/svg">
<g clip-path="url(#clip0_567_11187)">
<path d="M45.4332 22.2788L41.9876 21.1077C39.7137 20.3382 38.1746 19.3694 38.1746 17.463C38.1746 15.7247 39.514 14.5193 42.0561 14.5193C45.5013 14.5193 46.7383 16.4941 46.9064 18.5344H51.7225C51.3209 14.5877 48.9781 10.6723 42.2896 10.6723C36.9378 10.6723 33.2245 13.2142 33.2245 17.8306C33.2245 22.3786 36.9036 24.1197 40.5514 25.3565L44.0309 26.4935C46.2395 27.2287 47.7442 28.3657 47.7442 30.406C47.7442 32.5147 46.1714 33.8512 43.1958 33.8512C38.9809 33.8512 36.9748 31.3094 36.8409 28.6991H32.0247C32.3268 33.0476 35.2022 37.7638 43.0308 37.7638C49.0866 37.7638 52.7314 34.8543 52.7314 30.0042C52.7256 25.2225 49.1123 23.5156 45.4332 22.2788Z" fill="#EF892E"/>
<path d="M62.6602 16.6907C56.1371 16.6907 52.9938 20.8056 52.9938 27.2287C52.9938 33.6518 56.1371 37.7666 62.6602 37.7666C69.1837 37.7666 72.3612 33.6518 72.3612 27.2287C72.3612 20.8056 69.1837 16.6907 62.6602 16.6907ZM62.6602 34.3214C59.5484 34.3214 58.1122 31.8451 58.1122 27.2287C58.1122 22.5781 59.5511 20.1359 62.6602 20.1359C65.8065 20.1359 67.2116 22.5781 67.2116 27.2287C67.2116 31.8451 65.8065 34.3214 62.6602 34.3214Z" fill="#EF892E"/>
<path d="M78.6535 10.5042H73.6693V31.278C73.6693 34.3214 74.2051 35.8944 75.3763 37.2651H80.694V37.0656C79.4885 35.7947 78.6535 34.1562 78.6535 30.7423V10.5042Z" fill="#EF892E"/>
<path d="M94.7095 19.8025H93.9056C93.0367 18.03 91.2639 16.7591 88.3856 16.7591C82.9653 16.7591 80.2578 20.9737 80.2578 27.1973C80.2578 33.3525 82.8684 37.7011 88.3856 37.7011C91.2639 37.7011 93.0367 36.3304 93.9056 34.6577H94.7095V37.268H99.2921V17.1923H94.7095V19.8025ZM89.6253 34.0849C86.9836 34.0849 85.3762 31.7425 85.3762 27.2258C85.3762 22.7092 86.9806 20.3696 89.6253 20.3696C92.4694 20.3696 94.3418 23.0454 94.3418 27.2258C94.3418 31.4091 92.4694 34.0849 89.6253 34.0849Z" fill="#EF892E"/>
<path d="M112.977 16.6907C109.799 16.6907 108.192 18.1298 107.423 20.2043H106.619V17.1923H102.036V37.2622H107.021V26.4251C107.021 23.2135 108.594 20.7714 111.369 20.7714C113.678 20.7714 114.681 22.41 114.681 25.3536V37.2622H119.665V24.4845C119.668 19.7341 117.459 16.6907 112.977 16.6907Z" fill="#EF892E"/>
<path d="M22.8911 29.8731L21.2011 36.3532C20.8705 37.6127 19.7334 38.4904 18.4311 38.4904H9.32019C9.96712 36.9117 10.5513 35.1393 10.9731 33.3127L22.8911 29.8731Z" fill="#EF892E"/>
<path d="M27.2853 13.0346L24.3757 24.191L11.5572 29.7335C11.7338 27.7502 11.6398 25.801 11.1439 24.0599L27.2853 13.0346Z" fill="#EF892E"/>
<path d="M2.27537 17.4715L13.4752 0.0288849H6.80088C5.49853 0.0288849 4.36145 0.909422 4.03085 2.16611L0.0268555 17.52L2.27537 17.4715Z" fill="#EF892E"/>
<path d="M28.924 0.795437L8.77007 20.0162C7.97782 19.2696 6.99461 18.6541 5.79199 18.2067L20.7935 0.0288849H26.9776C27.7385 0.0288849 28.4168 0.325247 28.924 0.795437Z" fill="#EF892E"/>
</g>
<defs>
<clipPath id="clip0_567_11187">
<rect width="119.7" height="38.5" fill="white"/>
</clipPath>
</defs>
</svg>
